<?xml version="1.0" encoding="utf-8"?>
<!-- Generator: Adobe Illustrator 24.0.1, SVG Export Plug-In . SVG Version: 6.00 Build 0)  -->
<svg version="1.1" id="Layer_1" xmlns="http://www.w3.org/2000/svg" xmlns:xlink="http://www.w3.org/1999/xlink" x="0px" y="0px"
	 viewBox="0 0 24 24" style="enable-background:new 0 0 24 24;" xml:space="preserve">
<style type="text/css">
	.st0{fill:#198754;}
</style>
<path class="st0" d="M22,2v20H2V2H22z M24,0H0v24h24V0z M20,7h-8v1h8V7z M20,12h-8v1h8V12z M20,17h-8v1h8V17z M9.5,5.7L8.8,5
	L6.2,7.6L4.7,6.2L4,6.9L6.2,9L9.5,5.7z M9.5,10.7L8.8,10l-2.6,2.6l-1.5-1.5L4,11.9L6.2,14L9.5,10.7z M9.5,15.7L8.8,15l-2.6,2.6
	l-1.5-1.5L4,16.9L6.2,19L9.5,15.7z"/>
</svg>
